<mxfile host="app.diagrams.net" agent="Mozilla/5.0 (Windows NT 10.0; Win64; x64) AppleWebKit/537.36 (KHTML, like Gecko) Chrome/136.0.0.0 Safari/537.36 Edg/136.0.0.0" version="27.0.3">
  <diagram name="第 1 页" id="PdUoBdNIA5oblx4fwbAw">
    <mxGraphModel dx="1500" dy="826" grid="1" gridSize="10" guides="1" tooltips="1" connect="1" arrows="1" fold="1" page="1" pageScale="1" pageWidth="827" pageHeight="1169" math="0" shadow="0">
      <root>
        <mxCell id="0" />
        <mxCell id="1" parent="0" />
        <mxCell id="mWx3XJCiQebwv28W2iun-1" value="&lt;font style=&quot;font-size: 14px;&quot;&gt;开始&lt;/font&gt;" style="strokeWidth=2;html=1;shape=mxgraph.flowchart.terminator;whiteSpace=wrap;" vertex="1" parent="1">
          <mxGeometry x="507.5" y="300" width="100" height="50" as="geometry" />
        </mxCell>
        <mxCell id="mWx3XJCiQebwv28W2iun-2" value="" style="edgeStyle=orthogonalEdgeStyle;rounded=0;orthogonalLoop=1;jettySize=auto;html=1;exitX=0.5;exitY=1;exitDx=0;exitDy=0;exitPerimeter=0;" edge="1" parent="1" target="mWx3XJCiQebwv28W2iun-4" source="mWx3XJCiQebwv28W2iun-1">
          <mxGeometry relative="1" as="geometry">
            <mxPoint x="557.5" y="340" as="sourcePoint" />
          </mxGeometry>
        </mxCell>
        <mxCell id="mWx3XJCiQebwv28W2iun-3" value="" style="edgeStyle=orthogonalEdgeStyle;rounded=0;orthogonalLoop=1;jettySize=auto;html=1;" edge="1" parent="1" source="mWx3XJCiQebwv28W2iun-4" target="mWx3XJCiQebwv28W2iun-6">
          <mxGeometry relative="1" as="geometry" />
        </mxCell>
        <mxCell id="mWx3XJCiQebwv28W2iun-4" value="&lt;div style=&quot;line-height: 60%;&quot;&gt;&lt;p class=&quot;MsoNormal&quot;&gt;&lt;font style=&quot;font-size: 14px; line-height: 60%;&quot; face=&quot;Helvetica&quot;&gt;&lt;font&gt;云平台转发&lt;/font&gt;&lt;/font&gt;&lt;/p&gt;&lt;p class=&quot;MsoNormal&quot;&gt;&lt;font style=&quot;font-size: 14px; line-height: 60%;&quot; face=&quot;Helvetica&quot;&gt;&lt;font&gt;设备数据&lt;/font&gt;&lt;/font&gt;&lt;/p&gt;&lt;/div&gt;" style="whiteSpace=wrap;html=1;strokeWidth=2;" vertex="1" parent="1">
          <mxGeometry x="497.5" y="400" width="120" height="60" as="geometry" />
        </mxCell>
        <mxCell id="mWx3XJCiQebwv28W2iun-5" value="" style="edgeStyle=orthogonalEdgeStyle;rounded=0;orthogonalLoop=1;jettySize=auto;html=1;" edge="1" parent="1" source="mWx3XJCiQebwv28W2iun-6" target="mWx3XJCiQebwv28W2iun-9">
          <mxGeometry relative="1" as="geometry" />
        </mxCell>
        <mxCell id="mWx3XJCiQebwv28W2iun-6" value="&lt;div style=&quot;line-height: 50%;&quot;&gt;&lt;p class=&quot;MsoNormal&quot;&gt;&lt;font face=&quot;Helvetica&quot; style=&quot;font-size: 14px; line-height: 50%;&quot;&gt;后端接收并&lt;/font&gt;&lt;/p&gt;&lt;p class=&quot;MsoNormal&quot;&gt;&lt;font face=&quot;Helvetica&quot; style=&quot;font-size: 14px; line-height: 50%;&quot;&gt;解析数据&lt;/font&gt;&lt;/p&gt;&lt;/div&gt;" style="whiteSpace=wrap;html=1;strokeWidth=2;" vertex="1" parent="1">
          <mxGeometry x="497.5" y="510" width="120" height="60" as="geometry" />
        </mxCell>
        <mxCell id="mWx3XJCiQebwv28W2iun-7" value="" style="edgeStyle=orthogonalEdgeStyle;rounded=0;orthogonalLoop=1;jettySize=auto;html=1;" edge="1" parent="1" source="mWx3XJCiQebwv28W2iun-9" target="mWx3XJCiQebwv28W2iun-12">
          <mxGeometry relative="1" as="geometry" />
        </mxCell>
        <mxCell id="mWx3XJCiQebwv28W2iun-25" value="" style="edgeStyle=orthogonalEdgeStyle;rounded=0;orthogonalLoop=1;jettySize=auto;html=1;" edge="1" parent="1" source="mWx3XJCiQebwv28W2iun-9" target="mWx3XJCiQebwv28W2iun-16">
          <mxGeometry relative="1" as="geometry" />
        </mxCell>
        <mxCell id="mWx3XJCiQebwv28W2iun-9" value="&lt;div style=&quot;line-height: 40%;&quot;&gt;&lt;p class=&quot;MsoNormal&quot;&gt;&lt;font style=&quot;font-size: 14px;&quot; face=&quot;Helvetica&quot;&gt;是否&lt;font style=&quot;&quot;&gt;历史宿舍&lt;/font&gt;&lt;/font&gt;&lt;/p&gt;&lt;p class=&quot;MsoNormal&quot;&gt;&lt;font face=&quot;Helvetica&quot;&gt;&lt;font style=&quot;font-size: 14px;&quot;&gt;环境数据查询&lt;/font&gt;&lt;/font&gt;&lt;/p&gt;&lt;/div&gt;" style="rhombus;whiteSpace=wrap;html=1;strokeWidth=2;" vertex="1" parent="1">
          <mxGeometry x="670" y="500" width="128.13" height="80" as="geometry" />
        </mxCell>
        <mxCell id="mWx3XJCiQebwv28W2iun-23" value="" style="edgeStyle=orthogonalEdgeStyle;rounded=0;orthogonalLoop=1;jettySize=auto;html=1;" edge="1" parent="1" source="mWx3XJCiQebwv28W2iun-12" target="mWx3XJCiQebwv28W2iun-14">
          <mxGeometry relative="1" as="geometry" />
        </mxCell>
        <mxCell id="mWx3XJCiQebwv28W2iun-30" style="edgeStyle=orthogonalEdgeStyle;rounded=0;orthogonalLoop=1;jettySize=auto;html=1;exitX=1;exitY=0.5;exitDx=0;exitDy=0;" edge="1" parent="1" source="mWx3XJCiQebwv28W2iun-12">
          <mxGeometry relative="1" as="geometry">
            <mxPoint x="900" y="430" as="targetPoint" />
          </mxGeometry>
        </mxCell>
        <mxCell id="mWx3XJCiQebwv28W2iun-12" value="&lt;div style=&quot;line-height: 40%;&quot;&gt;&lt;p class=&quot;MsoNormal&quot;&gt;&lt;font style=&quot;font-size: 14px;&quot; face=&quot;Helvetica&quot;&gt;&amp;nbsp;&lt;font style=&quot;&quot;&gt;是否&lt;/font&gt;&lt;font style=&quot;&quot;&gt;历史宿舍&lt;/font&gt;&lt;/font&gt;&lt;/p&gt;&lt;p class=&quot;MsoNormal&quot;&gt;&lt;font face=&quot;Helvetica&quot;&gt;&lt;font style=&quot;font-size: 14px;&quot;&gt;环境数据导出&lt;/font&gt;&lt;/font&gt;&lt;/p&gt;&lt;/div&gt;" style="rhombus;whiteSpace=wrap;html=1;strokeWidth=2;" vertex="1" parent="1">
          <mxGeometry x="669.06" y="390" width="130" height="80" as="geometry" />
        </mxCell>
        <mxCell id="mWx3XJCiQebwv28W2iun-24" value="" style="edgeStyle=orthogonalEdgeStyle;rounded=0;orthogonalLoop=1;jettySize=auto;html=1;" edge="1" parent="1" source="mWx3XJCiQebwv28W2iun-14" target="mWx3XJCiQebwv28W2iun-22">
          <mxGeometry relative="1" as="geometry" />
        </mxCell>
        <mxCell id="mWx3XJCiQebwv28W2iun-14" value="&lt;p class=&quot;MsoNormal&quot;&gt;&lt;font face=&quot;Helvetica&quot; style=&quot;font-size: 14px;&quot;&gt;导出历史环境数据&lt;/font&gt;&lt;/p&gt;" style="whiteSpace=wrap;html=1;strokeWidth=2;" vertex="1" parent="1">
          <mxGeometry x="674.055" y="290" width="120" height="60" as="geometry" />
        </mxCell>
        <mxCell id="mWx3XJCiQebwv28W2iun-16" value="&lt;font style=&quot;font-size: 14px;&quot;&gt;查询历史宿舍&lt;/font&gt;&lt;div&gt;&lt;font style=&quot;font-size: 14px;&quot;&gt;环境数据&lt;/font&gt;&lt;/div&gt;" style="whiteSpace=wrap;html=1;strokeWidth=2;" vertex="1" parent="1">
          <mxGeometry x="842.66" y="510" width="114.68" height="60" as="geometry" />
        </mxCell>
        <mxCell id="mWx3XJCiQebwv28W2iun-21" style="edgeStyle=orthogonalEdgeStyle;rounded=0;orthogonalLoop=1;jettySize=auto;html=1;exitX=0.5;exitY=1;exitDx=0;exitDy=0;" edge="1" parent="1">
          <mxGeometry relative="1" as="geometry">
            <mxPoint x="537.49" y="680" as="sourcePoint" />
            <mxPoint x="537.49" y="680" as="targetPoint" />
          </mxGeometry>
        </mxCell>
        <mxCell id="mWx3XJCiQebwv28W2iun-22" value="&lt;font style=&quot;font-size: 14px;&quot;&gt;结束&lt;/font&gt;" style="strokeWidth=2;html=1;shape=mxgraph.flowchart.terminator;whiteSpace=wrap;" vertex="1" parent="1">
          <mxGeometry x="850" y="295" width="100" height="50" as="geometry" />
        </mxCell>
        <mxCell id="mWx3XJCiQebwv28W2iun-26" style="edgeStyle=orthogonalEdgeStyle;rounded=0;orthogonalLoop=1;jettySize=auto;html=1;exitX=0.5;exitY=0;exitDx=0;exitDy=0;entryX=0.43;entryY=1.02;entryDx=0;entryDy=0;entryPerimeter=0;" edge="1" parent="1">
          <mxGeometry relative="1" as="geometry">
            <mxPoint x="897.6600000000003" y="510" as="sourcePoint" />
            <mxPoint x="898" y="346" as="targetPoint" />
          </mxGeometry>
        </mxCell>
        <mxCell id="mWx3XJCiQebwv28W2iun-27" value="&lt;font style=&quot;font-size: 14px;&quot;&gt;Y&lt;/font&gt;" style="text;html=1;align=center;verticalAlign=middle;whiteSpace=wrap;rounded=0;" vertex="1" parent="1">
          <mxGeometry x="787" y="513" width="60" height="30" as="geometry" />
        </mxCell>
        <mxCell id="mWx3XJCiQebwv28W2iun-28" value="&lt;font style=&quot;font-size: 14px;&quot;&gt;N&lt;/font&gt;" style="text;html=1;align=center;verticalAlign=middle;whiteSpace=wrap;rounded=0;" vertex="1" parent="1">
          <mxGeometry x="687" y="473" width="60" height="30" as="geometry" />
        </mxCell>
        <mxCell id="mWx3XJCiQebwv28W2iun-29" value="&lt;font style=&quot;font-size: 14px;&quot;&gt;Y&lt;/font&gt;" style="text;html=1;align=center;verticalAlign=middle;whiteSpace=wrap;rounded=0;" vertex="1" parent="1">
          <mxGeometry x="689" y="361" width="60" height="30" as="geometry" />
        </mxCell>
        <mxCell id="mWx3XJCiQebwv28W2iun-31" value="&lt;font style=&quot;font-size: 14px;&quot;&gt;N&lt;/font&gt;" style="text;html=1;align=center;verticalAlign=middle;whiteSpace=wrap;rounded=0;" vertex="1" parent="1">
          <mxGeometry x="785.66" y="402" width="60" height="30" as="geometry" />
        </mxCell>
      </root>
    </mxGraphModel>
  </diagram>
</mxfile>
